<?xml version="1.0" encoding="utf-8" standalone="no"?>
<!DOCTYPE svg PUBLIC "-//W3C//DTD SVG 1.1//EN"
  "http://www.w3.org/Graphics/SVG/1.1/DTD/svg11.dtd">
<!-- Created with matplotlib (https://matplotlib.org/) -->
<svg height="353.99952pt" version="1.1" viewBox="0 0 469.19952 353.99952" width="469.19952pt" xmlns="http://www.w3.org/2000/svg" xmlns:xlink="http://www.w3.org/1999/xlink">
 <defs>
  <style type="text/css">
*{stroke-linecap:butt;stroke-linejoin:round;}
  </style>
 </defs>
 <g id="figure_1">
  <g id="patch_1">
   <path d="M 0 353.99952 
L 469.19952 353.99952 
L 469.19952 0 
L 0 0 
z
" style="fill:#ffffff;"/>
  </g>
  <g id="axes_1">
   <g id="patch_2">
    <path d="M 10.7 343.29952 
L 458.49952 343.29952 
L 458.49952 24.597656 
L 10.7 24.597656 
z
" style="fill:#ffffff;"/>
   </g>
   <g id="patch_3">
    <path clip-path="url(#p46feee265e)" d="M 59.373861 88.338029 
L 117.782494 88.338029 
L 117.782494 62.84188 
L 59.373861 62.84188 
z
" style="fill:none;"/>
   </g>
   <g id="patch_4">
    <path clip-path="url(#p46feee265e)" d="M 63.073074 88.59299 
L 114.08328 88.59299 
Q 117.977189 88.59299 117.977189 83.493761 
L 117.977189 67.686148 
Q 117.977189 62.586918 114.08328 62.586918 
L 63.073074 62.586918 
Q 59.179165 62.586918 59.179165 67.686148 
L 59.179165 83.493761 
Q 59.179165 88.59299 63.073074 88.59299 
z
" style="fill:none;stroke:#000000;stroke-linejoin:miter;stroke-width:0.75;"/>
   </g>
   <g id="patch_5">
    <path clip-path="url(#p46feee265e)" d="M 122.64988 88.338029 
L 181.058513 88.338029 
L 181.058513 62.84188 
L 122.64988 62.84188 
z
" style="fill:none;"/>
   </g>
   <g id="patch_6">
    <path clip-path="url(#p46feee265e)" d="M 126.349093 88.59299 
L 177.3593 88.59299 
Q 181.253208 88.59299 181.253208 83.493761 
L 181.253208 67.686148 
Q 181.253208 62.586918 177.3593 62.586918 
L 126.349093 62.586918 
Q 122.455185 62.586918 122.455185 67.686148 
L 122.455185 83.493761 
Q 122.455185 88.59299 126.349093 88.59299 
z
" style="fill:none;stroke:#000000;stroke-linejoin:miter;stroke-width:0.75;"/>
   </g>
   <g id="patch_7">
    <path clip-path="url(#p46feee265e)" d="M 185.925899 88.338029 
L 244.334532 88.338029 
L 244.334532 62.84188 
L 185.925899 62.84188 
z
" style="fill:none;"/>
   </g>
   <g id="patch_8">
    <path clip-path="url(#p46feee265e)" d="M 189.625113 88.59299 
L 240.635319 88.59299 
Q 244.529228 88.59299 244.529228 83.493761 
L 244.529228 67.686148 
Q 244.529228 62.586918 240.635319 62.586918 
L 189.625113 62.586918 
Q 185.731204 62.586918 185.731204 67.686148 
L 185.731204 83.493761 
Q 185.731204 88.59299 189.625113 88.59299 
z
" style="fill:none;stroke:#000000;stroke-linejoin:miter;stroke-width:0.75;"/>
   </g>
   <g id="patch_9">
    <path clip-path="url(#p46feee265e)" d="M 249.201918 88.338029 
L 307.610551 88.338029 
L 307.610551 62.84188 
L 249.201918 62.84188 
z
" style="fill:none;"/>
   </g>
   <g id="patch_10">
    <path clip-path="url(#p46feee265e)" d="M 252.901132 88.59299 
L 303.911338 88.59299 
Q 307.805247 88.59299 307.805247 83.493761 
L 307.805247 67.686148 
Q 307.805247 62.586918 303.911338 62.586918 
L 252.901132 62.586918 
Q 249.007223 62.586918 249.007223 67.686148 
L 249.007223 83.493761 
Q 249.007223 88.59299 252.901132 88.59299 
z
" style="fill:none;stroke:#000000;stroke-linejoin:miter;stroke-width:0.75;"/>
   </g>
   <g id="patch_11">
    <path clip-path="url(#p46feee265e)" d="M 56.453429 90.887644 
L 310.530983 90.887644 
L 310.530983 60.292265 
L 56.453429 60.292265 
z
" style="fill:none;stroke:#808080;stroke-linejoin:miter;stroke-width:0.75;"/>
   </g>
   <g id="patch_12">
    <path clip-path="url(#p46feee265e)" d="M 122.64988 152.078402 
L 181.058513 152.078402 
L 181.058513 126.582253 
L 122.64988 126.582253 
z
" style="fill:none;"/>
   </g>
   <g id="patch_13">
    <path clip-path="url(#p46feee265e)" d="M 126.349093 152.333363 
L 177.3593 152.333363 
Q 181.253208 152.333363 181.253208 147.234133 
L 181.253208 131.426521 
Q 181.253208 126.327291 177.3593 126.327291 
L 126.349093 126.327291 
Q 122.455185 126.327291 122.455185 131.426521 
L 122.455185 147.234133 
Q 122.455185 152.333363 126.349093 152.333363 
z
" style="fill:none;stroke:#000000;stroke-linejoin:miter;stroke-width:0.75;"/>
   </g>
   <g id="patch_14">
    <path clip-path="url(#p46feee265e)" d="M 185.925899 152.078402 
L 244.334532 152.078402 
L 244.334532 126.582253 
L 185.925899 126.582253 
z
" style="fill:none;"/>
   </g>
   <g id="patch_15">
    <path clip-path="url(#p46feee265e)" d="M 189.625113 152.333363 
L 240.635319 152.333363 
Q 244.529228 152.333363 244.529228 147.234133 
L 244.529228 131.426521 
Q 244.529228 126.327291 240.635319 126.327291 
L 189.625113 126.327291 
Q 185.731204 126.327291 185.731204 131.426521 
L 185.731204 147.234133 
Q 185.731204 152.333363 189.625113 152.333363 
z
" style="fill:none;stroke:#000000;stroke-linejoin:miter;stroke-width:0.75;"/>
   </g>
   <g id="patch_16">
    <path clip-path="url(#p46feee265e)" d="M 278.406235 152.078402 
L 336.814868 152.078402 
L 336.814868 126.582253 
L 278.406235 126.582253 
z
" style="fill:none;"/>
   </g>
   <g id="patch_17">
    <path clip-path="url(#p46feee265e)" d="M 282.105448 152.333363 
L 333.115654 152.333363 
Q 337.009563 152.333363 337.009563 147.234133 
L 337.009563 131.426521 
Q 337.009563 126.327291 333.115654 126.327291 
L 282.105448 126.327291 
Q 278.211539 126.327291 278.211539 131.426521 
L 278.211539 147.234133 
Q 278.211539 152.333363 282.105448 152.333363 
z
" style="fill:none;stroke:#000000;stroke-linejoin:miter;stroke-width:0.75;"/>
   </g>
   <g id="patch_18">
    <path clip-path="url(#p46feee265e)" d="M 361.151798 152.078402 
L 419.560431 152.078402 
L 419.560431 126.582253 
L 361.151798 126.582253 
z
" style="fill:none;"/>
   </g>
   <g id="patch_19">
    <path clip-path="url(#p46feee265e)" d="M 364.851012 152.333363 
L 415.861218 152.333363 
Q 419.755127 152.333363 419.755127 147.234133 
L 419.755127 131.426521 
Q 419.755127 126.327291 415.861218 126.327291 
L 364.851012 126.327291 
Q 360.957103 126.327291 360.957103 131.426521 
L 360.957103 147.234133 
Q 360.957103 152.333363 364.851012 152.333363 
z
" style="fill:none;stroke:#000000;stroke-linejoin:miter;stroke-width:0.75;"/>
   </g>
   <g id="patch_20">
    <path clip-path="url(#p46feee265e)" d="M 119.729448 154.628017 
L 247.254964 154.628017 
L 247.254964 124.032638 
L 119.729448 124.032638 
z
" style="fill:none;stroke:#808080;stroke-linejoin:miter;stroke-width:0.75;"/>
   </g>
   <g id="patch_21">
    <path clip-path="url(#p46feee265e)" d="M 154.28789 215.818774 
L 212.696523 215.818774 
L 212.696523 190.322625 
L 154.28789 190.322625 
z
" style="fill:none;"/>
   </g>
   <g id="patch_22">
    <path clip-path="url(#p46feee265e)" d="M 157.987103 216.073736 
L 208.997309 216.073736 
Q 212.891218 216.073736 212.891218 210.974506 
L 212.891218 195.166894 
Q 212.891218 190.067664 208.997309 190.067664 
L 157.987103 190.067664 
Q 154.093194 190.067664 154.093194 195.166894 
L 154.093194 210.974506 
Q 154.093194 216.073736 157.987103 216.073736 
z
" style="fill:none;stroke:#000000;stroke-linejoin:miter;stroke-width:0.75;"/>
   </g>
   <g id="patch_23">
    <path clip-path="url(#p46feee265e)" d="M 278.406235 215.818774 
L 336.814868 215.818774 
L 336.814868 190.322625 
L 278.406235 190.322625 
z
" style="fill:none;"/>
   </g>
   <g id="patch_24">
    <path clip-path="url(#p46feee265e)" d="M 282.105448 216.073736 
L 333.115654 216.073736 
Q 337.009563 216.073736 337.009563 210.974506 
L 337.009563 195.166894 
Q 337.009563 190.067664 333.115654 190.067664 
L 282.105448 190.067664 
Q 278.211539 190.067664 278.211539 195.166894 
L 278.211539 210.974506 
Q 278.211539 216.073736 282.105448 216.073736 
z
" style="fill:none;stroke:#000000;stroke-linejoin:miter;stroke-width:0.75;"/>
   </g>
   <g id="patch_25">
    <path clip-path="url(#p46feee265e)" d="M 361.151798 215.818774 
L 419.560431 215.818774 
L 419.560431 190.322625 
L 361.151798 190.322625 
z
" style="fill:none;"/>
   </g>
   <g id="patch_26">
    <path clip-path="url(#p46feee265e)" d="M 364.851012 216.073736 
L 415.861218 216.073736 
Q 419.755127 216.073736 419.755127 210.974506 
L 419.755127 195.166894 
Q 419.755127 190.067664 415.861218 190.067664 
L 364.851012 190.067664 
Q 360.957103 190.067664 360.957103 195.166894 
L 360.957103 210.974506 
Q 360.957103 216.073736 364.851012 216.073736 
z
" style="fill:none;stroke:#000000;stroke-linejoin:miter;stroke-width:0.75;"/>
   </g>
   <g id="patch_27">
    <path clip-path="url(#p46feee265e)" d="M 127.517266 279.559147 
L 185.925899 279.559147 
L 185.925899 254.062998 
L 127.517266 254.062998 
z
" style="fill:none;"/>
   </g>
   <g id="patch_28">
    <path clip-path="url(#p46feee265e)" d="M 131.21648 279.814109 
L 182.226686 279.814109 
Q 186.120595 279.814109 186.120595 274.714879 
L 186.120595 258.907266 
Q 186.120595 253.808037 182.226686 253.808037 
L 131.21648 253.808037 
Q 127.322571 253.808037 127.322571 258.907266 
L 127.322571 274.714879 
Q 127.322571 279.814109 131.21648 279.814109 
z
" style="fill:none;stroke:#000000;stroke-linejoin:miter;stroke-width:0.75;"/>
   </g>
   <g id="patch_29">
    <path clip-path="url(#p46feee265e)" d="M 215.130216 266.173669 
L 273.538849 266.173669 
L 273.538849 240.67752 
L 215.130216 240.67752 
z
" style="fill:none;"/>
   </g>
   <g id="patch_30">
    <path clip-path="url(#p46feee265e)" d="M 218.829429 266.42863 
L 269.839635 266.42863 
Q 273.733544 266.42863 273.733544 261.329401 
L 273.733544 245.521788 
Q 273.733544 240.422558 269.839635 240.422558 
L 218.829429 240.422558 
Q 214.93552 240.422558 214.93552 245.521788 
L 214.93552 261.329401 
Q 214.93552 266.42863 218.829429 266.42863 
z
" style="fill:none;stroke:#000000;stroke-linejoin:miter;stroke-width:0.75;"/>
   </g>
   <g id="patch_31">
    <path clip-path="url(#p46feee265e)" d="M 215.130216 292.944626 
L 273.538849 292.944626 
L 273.538849 267.448476 
L 215.130216 267.448476 
z
" style="fill:none;"/>
   </g>
   <g id="patch_32">
    <path clip-path="url(#p46feee265e)" d="M 218.829429 293.199587 
L 269.839635 293.199587 
Q 273.733544 293.199587 273.733544 288.100357 
L 273.733544 272.292745 
Q 273.733544 267.193515 269.839635 267.193515 
L 218.829429 267.193515 
Q 214.93552 267.193515 214.93552 272.292745 
L 214.93552 288.100357 
Q 214.93552 293.199587 218.829429 293.199587 
z
" style="fill:none;stroke:#000000;stroke-linejoin:miter;stroke-width:0.75;"/>
   </g>
   <g id="patch_33">
    <path clip-path="url(#p46feee265e)" d="M 302.743165 279.559147 
L 361.151798 279.559147 
L 361.151798 254.062998 
L 302.743165 254.062998 
z
" style="fill:none;"/>
   </g>
   <g id="patch_34">
    <path clip-path="url(#p46feee265e)" d="M 306.442379 279.814109 
L 357.452585 279.814109 
Q 361.346494 279.814109 361.346494 274.714879 
L 361.346494 258.907266 
Q 361.346494 253.808037 357.452585 253.808037 
L 306.442379 253.808037 
Q 302.54847 253.808037 302.54847 258.907266 
L 302.54847 274.714879 
Q 302.54847 279.814109 306.442379 279.814109 
z
" style="fill:none;stroke:#000000;stroke-linejoin:miter;stroke-width:0.75;"/>
   </g>
   <g id="patch_35">
    <path clip-path="url(#p46feee265e)" d="M 212.209784 295.49424 
L 276.45928 295.49424 
L 276.45928 238.127905 
L 212.209784 238.127905 
z
" style="fill:none;stroke:#808080;stroke-linejoin:miter;stroke-width:0.75;"/>
   </g>
   <g id="patch_36">
    <path clip-path="url(#p46feee265e)" d="M 268.671463 330.551445 
L 327.080096 330.551445 
L 327.080096 305.055296 
L 268.671463 305.055296 
z
" style="fill:none;"/>
   </g>
   <g id="patch_37">
    <path clip-path="url(#p46feee265e)" d="M 346.54964 330.551445 
L 404.958273 330.551445 
L 404.958273 305.055296 
L 346.54964 305.055296 
z
" style="fill:none;"/>
   </g>
   <g id="patch_38">
    <path clip-path="url(#p46feee265e)" d="M 183.492206 92.890424 
Q 183.492206 107.459825 183.492206 120.631684 
" style="fill:none;stroke:#000000;stroke-linecap:round;stroke-width:1.25;"/>
    <path clip-path="url(#p46feee265e)" d="M 185.492206 116.631684 
L 183.492206 120.631684 
L 181.492206 116.631684 
L 185.492206 116.631684 
z
" style="stroke:#000000;stroke-linecap:round;stroke-width:1.25;"/>
   </g>
   <g id="patch_39">
    <path clip-path="url(#p46feee265e)" d="M 249.251353 139.330327 
Q 262.830509 139.330327 275.012124 139.330327 
" style="fill:none;stroke:#000000;stroke-linecap:round;stroke-width:1.25;"/>
    <path clip-path="url(#p46feee265e)" d="M 271.012124 137.330327 
L 275.012124 139.330327 
L 271.012124 141.330327 
L 271.012124 137.330327 
z
" style="stroke:#000000;stroke-linecap:round;stroke-width:1.25;"/>
   </g>
   <g id="patch_40">
    <path clip-path="url(#p46feee265e)" d="M 359.152439 139.330327 
L 359.152439 139.330327 
L 359.152439 139.330327 
L 359.152439 139.330327 
M 359.152439 139.330327 
Q 348.983009 139.330327 338.813579 139.330327 
M 338.813579 134.330327 
L 338.813579 134.330327 
L 338.813579 144.330327 
L 338.813579 144.330327 
" style="fill:none;stroke:#000000;stroke-linecap:round;stroke-width:1.25;"/>
   </g>
   <g id="patch_41">
    <path clip-path="url(#p46feee265e)" d="M 360.077848 188.634968 
L 360.077848 188.634968 
L 360.077848 188.634968 
L 360.077848 188.634968 
M 360.077848 188.634968 
Q 348.983775 171.201208 337.889702 153.767447 
M 342.108024 151.083094 
L 342.108024 151.083094 
L 333.671379 156.451801 
L 333.671379 156.451801 
" style="fill:none;stroke:#000000;stroke-linecap:round;stroke-width:1.25;"/>
   </g>
   <g id="patch_42">
    <path clip-path="url(#p46feee265e)" d="M 307.610551 154.081182 
Q 307.610551 171.199866 307.610551 186.921009 
" style="fill:none;stroke:#000000;stroke-linecap:round;stroke-width:1.25;"/>
    <path clip-path="url(#p46feee265e)" d="M 309.610551 182.921009 
L 307.610551 186.921009 
L 305.610551 182.921009 
L 309.610551 182.921009 
z
" style="stroke:#000000;stroke-linecap:round;stroke-width:1.25;"/>
   </g>
   <g id="patch_43">
    <path clip-path="url(#p46feee265e)" d="M 305.986822 216.981616 
L 305.986822 216.981616 
L 305.986822 216.981616 
L 305.986822 216.981616 
M 305.986822 216.981616 
Q 292.035851 226.97267 278.084881 236.963723 
M 275.173661 232.898653 
L 275.173661 232.898653 
L 280.996101 241.028794 
L 280.996101 241.028794 
" style="fill:none;stroke:#000000;stroke-linecap:round;stroke-width:1.25;"/>
   </g>
   <g id="patch_44">
    <path clip-path="url(#p46feee265e)" d="M 183.492206 188.322647 
L 183.492206 188.322647 
L 183.492206 188.322647 
L 183.492206 188.322647 
M 183.492206 188.322647 
Q 183.492206 172.476875 183.492206 156.631103 
M 188.492206 156.631103 
L 188.492206 156.631103 
L 178.492206 156.631103 
L 178.492206 156.631103 
" style="fill:none;stroke:#000000;stroke-linecap:round;stroke-width:1.25;"/>
   </g>
   <g id="patch_45">
    <path clip-path="url(#p46feee265e)" d="M 187.924783 266.811073 
Q 199.066773 266.811073 208.811219 266.811073 
" style="fill:none;stroke:#000000;stroke-linecap:round;stroke-width:1.25;"/>
    <path clip-path="url(#p46feee265e)" d="M 204.811219 264.811073 
L 208.811219 266.811073 
L 204.811219 268.811073 
L 204.811219 264.811073 
z
" style="stroke:#000000;stroke-linecap:round;stroke-width:1.25;"/>
   </g>
   <g id="patch_46">
    <path clip-path="url(#p46feee265e)" d="M 278.458165 266.811073 
L 278.458165 266.811073 
L 278.458165 266.811073 
L 278.458165 266.811073 
M 278.458165 266.811073 
Q 289.600154 266.811073 300.742143 266.811073 
M 300.742143 271.811073 
L 300.742143 271.811073 
L 300.742143 261.811073 
L 300.742143 261.811073 
" style="fill:none;stroke:#000000;stroke-linecap:round;stroke-width:1.25;"/>
   </g>
   <g id="patch_47">
    <path clip-path="url(#p46feee265e)" d="M 330.344132 280.758948 
Q 314.912548 292.306535 300.599907 303.016808 
" style="fill:none;stroke:#000000;stroke-linecap:round;stroke-width:1.25;"/>
    <path clip-path="url(#p46feee265e)" d="M 305.000771 302.221575 
L 300.599907 303.016808 
L 302.604239 299.018977 
L 305.000771 302.221575 
z
" style="stroke:#000000;stroke-linecap:round;stroke-width:1.25;"/>
   </g>
   <g id="patch_48">
    <path clip-path="url(#p46feee265e)" d="M 333.677388 280.565984 
Q 353.85149 292.30767 372.817733 303.346362 
" style="fill:none;stroke:#000000;stroke-linecap:round;stroke-width:1.25;"/>
    <path clip-path="url(#p46feee265e)" d="M 370.366685 299.605725 
L 372.817733 303.346362 
L 368.354595 303.062819 
L 370.366685 299.605725 
z
" style="stroke:#000000;stroke-linecap:round;stroke-width:1.25;"/>
   </g>
   <g id="matplotlib.axis_1">
    <g id="xtick_1"/>
    <g id="xtick_2"/>
    <g id="xtick_3"/>
    <g id="xtick_4"/>
    <g id="xtick_5"/>
   </g>
   <g id="matplotlib.axis_2">
    <g id="ytick_1"/>
    <g id="ytick_2"/>
    <g id="ytick_3"/>
    <g id="ytick_4"/>
    <g id="ytick_5"/>
    <g id="ytick_6"/>
   </g>
   <g id="text_1">
    <!-- FGFR3 -->
    <defs>
     <path d="M 9.8125 72.90625 
L 51.703125 72.90625 
L 51.703125 64.59375 
L 19.671875 64.59375 
L 19.671875 43.109375 
L 48.578125 43.109375 
L 48.578125 34.8125 
L 19.671875 34.8125 
L 19.671875 0 
L 9.8125 0 
z
" id="DejaVuSans-70"/>
     <path d="M 59.515625 10.40625 
L 59.515625 29.984375 
L 43.40625 29.984375 
L 43.40625 38.09375 
L 69.28125 38.09375 
L 69.28125 6.78125 
Q 63.578125 2.734375 56.6875 0.65625 
Q 49.8125 -1.421875 42 -1.421875 
Q 24.90625 -1.421875 15.25 8.5625 
Q 5.609375 18.5625 5.609375 36.375 
Q 5.609375 54.25 15.25 64.234375 
Q 24.90625 74.21875 42 74.21875 
Q 49.125 74.21875 55.546875 72.453125 
Q 61.96875 70.703125 67.390625 67.28125 
L 67.390625 56.78125 
Q 61.921875 61.421875 55.765625 63.765625 
Q 49.609375 66.109375 42.828125 66.109375 
Q 29.4375 66.109375 22.71875 58.640625 
Q 16.015625 51.171875 16.015625 36.375 
Q 16.015625 21.625 22.71875 14.15625 
Q 29.4375 6.6875 42.828125 6.6875 
Q 48.046875 6.6875 52.140625 7.59375 
Q 56.25 8.5 59.515625 10.40625 
z
" id="DejaVuSans-71"/>
     <path d="M 44.390625 34.1875 
Q 47.5625 33.109375 50.5625 29.59375 
Q 53.5625 26.078125 56.59375 19.921875 
L 66.609375 0 
L 56 0 
L 46.6875 18.703125 
Q 43.0625 26.03125 39.671875 28.421875 
Q 36.28125 30.8125 30.421875 30.8125 
L 19.671875 30.8125 
L 19.671875 0 
L 9.8125 0 
L 9.8125 72.90625 
L 32.078125 72.90625 
Q 44.578125 72.90625 50.734375 67.671875 
Q 56.890625 62.453125 56.890625 51.90625 
Q 56.890625 45.015625 53.6875 40.46875 
Q 50.484375 35.9375 44.390625 34.1875 
z
M 19.671875 64.796875 
L 19.671875 38.921875 
L 32.078125 38.921875 
Q 39.203125 38.921875 42.84375 42.21875 
Q 46.484375 45.515625 46.484375 51.90625 
Q 46.484375 58.296875 42.84375 61.546875 
Q 39.203125 64.796875 32.078125 64.796875 
z
" id="DejaVuSans-82"/>
     <path d="M 40.578125 39.3125 
Q 47.65625 37.796875 51.625 33 
Q 55.609375 28.21875 55.609375 21.1875 
Q 55.609375 10.40625 48.1875 4.484375 
Q 40.765625 -1.421875 27.09375 -1.421875 
Q 22.515625 -1.421875 17.65625 -0.515625 
Q 12.796875 0.390625 7.625 2.203125 
L 7.625 11.71875 
Q 11.71875 9.328125 16.59375 8.109375 
Q 21.484375 6.890625 26.8125 6.890625 
Q 36.078125 6.890625 40.9375 10.546875 
Q 45.796875 14.203125 45.796875 21.1875 
Q 45.796875 27.640625 41.28125 31.265625 
Q 36.765625 34.90625 28.71875 34.90625 
L 20.21875 34.90625 
L 20.21875 43.015625 
L 29.109375 43.015625 
Q 36.375 43.015625 40.234375 45.921875 
Q 44.09375 48.828125 44.09375 54.296875 
Q 44.09375 59.90625 40.109375 62.90625 
Q 36.140625 65.921875 28.71875 65.921875 
Q 24.65625 65.921875 20.015625 65.03125 
Q 15.375 64.15625 9.8125 62.3125 
L 9.8125 71.09375 
Q 15.4375 72.65625 20.34375 73.4375 
Q 25.25 74.21875 29.59375 74.21875 
Q 40.828125 74.21875 47.359375 69.109375 
Q 53.90625 64.015625 53.90625 55.328125 
Q 53.90625 49.265625 50.4375 45.09375 
Q 46.96875 40.921875 40.578125 39.3125 
z
" id="DejaVuSans-51"/>
    </defs>
    <g transform="translate(72.296927 78.349329)scale(0.1 -0.1)">
     <use xlink:href="#DejaVuSans-70"/>
     <use x="57.519531" xlink:href="#DejaVuSans-71"/>
     <use x="135.009766" xlink:href="#DejaVuSans-70"/>
     <use x="192.529297" xlink:href="#DejaVuSans-82"/>
     <use x="262.011719" xlink:href="#DejaVuSans-51"/>
    </g>
   </g>
   <g id="text_2">
    <!-- EGFR -->
    <defs>
     <path d="M 9.8125 72.90625 
L 55.90625 72.90625 
L 55.90625 64.59375 
L 19.671875 64.59375 
L 19.671875 43.015625 
L 54.390625 43.015625 
L 54.390625 34.71875 
L 19.671875 34.71875 
L 19.671875 8.296875 
L 56.78125 8.296875 
L 56.78125 0 
L 9.8125 0 
z
" id="DejaVuSans-69"/>
    </defs>
    <g transform="translate(138.470603 78.349329)scale(0.1 -0.1)">
     <use xlink:href="#DejaVuSans-69"/>
     <use x="63.183594" xlink:href="#DejaVuSans-71"/>
     <use x="140.673828" xlink:href="#DejaVuSans-70"/>
     <use x="198.193359" xlink:href="#DejaVuSans-82"/>
    </g>
   </g>
   <g id="text_3">
    <!-- ERBB2 -->
    <defs>
     <path d="M 19.671875 34.8125 
L 19.671875 8.109375 
L 35.5 8.109375 
Q 43.453125 8.109375 47.28125 11.40625 
Q 51.125 14.703125 51.125 21.484375 
Q 51.125 28.328125 47.28125 31.5625 
Q 43.453125 34.8125 35.5 34.8125 
z
M 19.671875 64.796875 
L 19.671875 42.828125 
L 34.28125 42.828125 
Q 41.5 42.828125 45.03125 45.53125 
Q 48.578125 48.25 48.578125 53.8125 
Q 48.578125 59.328125 45.03125 62.0625 
Q 41.5 64.796875 34.28125 64.796875 
z
M 9.8125 72.90625 
L 35.015625 72.90625 
Q 46.296875 72.90625 52.390625 68.21875 
Q 58.5 63.53125 58.5 54.890625 
Q 58.5 48.1875 55.375 44.234375 
Q 52.25 40.28125 46.1875 39.3125 
Q 53.46875 37.75 57.5 32.78125 
Q 61.53125 27.828125 61.53125 20.40625 
Q 61.53125 10.640625 54.890625 5.3125 
Q 48.25 0 35.984375 0 
L 9.8125 0 
z
" id="DejaVuSans-66"/>
     <path d="M 19.1875 8.296875 
L 53.609375 8.296875 
L 53.609375 0 
L 7.328125 0 
L 7.328125 8.296875 
Q 12.9375 14.109375 22.625 23.890625 
Q 32.328125 33.6875 34.8125 36.53125 
Q 39.546875 41.84375 41.421875 45.53125 
Q 43.3125 49.21875 43.3125 52.78125 
Q 43.3125 58.59375 39.234375 62.25 
Q 35.15625 65.921875 28.609375 65.921875 
Q 23.96875 65.921875 18.8125 64.3125 
Q 13.671875 62.703125 7.8125 59.421875 
L 7.8125 69.390625 
Q 13.765625 71.78125 18.9375 73 
Q 24.125 74.21875 28.421875 74.21875 
Q 39.75 74.21875 46.484375 68.546875 
Q 53.21875 62.890625 53.21875 53.421875 
Q 53.21875 48.921875 51.53125 44.890625 
Q 49.859375 40.875 45.40625 35.40625 
Q 44.1875 33.984375 37.640625 27.21875 
Q 31.109375 20.453125 19.1875 8.296875 
z
" id="DejaVuSans-50"/>
    </defs>
    <g transform="translate(198.454434 78.349329)scale(0.1 -0.1)">
     <use xlink:href="#DejaVuSans-69"/>
     <use x="63.183594" xlink:href="#DejaVuSans-82"/>
     <use x="132.666016" xlink:href="#DejaVuSans-66"/>
     <use x="201.269531" xlink:href="#DejaVuSans-66"/>
     <use x="269.873047" xlink:href="#DejaVuSans-50"/>
    </g>
   </g>
   <g id="text_4">
    <!-- ERBB3 -->
    <g transform="translate(261.730454 78.349329)scale(0.1 -0.1)">
     <use xlink:href="#DejaVuSans-69"/>
     <use x="63.183594" xlink:href="#DejaVuSans-82"/>
     <use x="132.666016" xlink:href="#DejaVuSans-66"/>
     <use x="201.269531" xlink:href="#DejaVuSans-66"/>
     <use x="269.873047" xlink:href="#DejaVuSans-51"/>
    </g>
   </g>
   <g id="text_5">
    <!-- HRAS -->
    <defs>
     <path d="M 9.8125 72.90625 
L 19.671875 72.90625 
L 19.671875 43.015625 
L 55.515625 43.015625 
L 55.515625 72.90625 
L 65.375 72.90625 
L 65.375 0 
L 55.515625 0 
L 55.515625 34.71875 
L 19.671875 34.71875 
L 19.671875 0 
L 9.8125 0 
z
" id="DejaVuSans-72"/>
     <path d="M 34.1875 63.1875 
L 20.796875 26.90625 
L 47.609375 26.90625 
z
M 28.609375 72.90625 
L 39.796875 72.90625 
L 67.578125 0 
L 57.328125 0 
L 50.6875 18.703125 
L 17.828125 18.703125 
L 11.1875 0 
L 0.78125 0 
z
" id="DejaVuSans-65"/>
     <path d="M 53.515625 70.515625 
L 53.515625 60.890625 
Q 47.90625 63.578125 42.921875 64.890625 
Q 37.9375 66.21875 33.296875 66.21875 
Q 25.25 66.21875 20.875 63.09375 
Q 16.5 59.96875 16.5 54.203125 
Q 16.5 49.359375 19.40625 46.890625 
Q 22.3125 44.4375 30.421875 42.921875 
L 36.375 41.703125 
Q 47.40625 39.59375 52.65625 34.296875 
Q 57.90625 29 57.90625 20.125 
Q 57.90625 9.515625 50.796875 4.046875 
Q 43.703125 -1.421875 29.984375 -1.421875 
Q 24.8125 -1.421875 18.96875 -0.25 
Q 13.140625 0.921875 6.890625 3.21875 
L 6.890625 13.375 
Q 12.890625 10.015625 18.65625 8.296875 
Q 24.421875 6.59375 29.984375 6.59375 
Q 38.421875 6.59375 43.015625 9.90625 
Q 47.609375 13.234375 47.609375 19.390625 
Q 47.609375 24.75 44.3125 27.78125 
Q 41.015625 30.8125 33.5 32.328125 
L 27.484375 33.5 
Q 16.453125 35.6875 11.515625 40.375 
Q 6.59375 45.0625 6.59375 53.421875 
Q 6.59375 63.09375 13.40625 68.65625 
Q 20.21875 74.21875 32.171875 74.21875 
Q 37.3125 74.21875 42.625 73.28125 
Q 47.953125 72.359375 53.515625 70.515625 
z
" id="DejaVuSans-83"/>
    </defs>
    <g transform="translate(138.028415 142.089702)scale(0.1 -0.1)">
     <use xlink:href="#DejaVuSans-72"/>
     <use x="75.195312" xlink:href="#DejaVuSans-82"/>
     <use x="144.615234" xlink:href="#DejaVuSans-65"/>
     <use x="213.023438" xlink:href="#DejaVuSans-83"/>
    </g>
   </g>
   <g id="text_6">
    <!-- NRAS -->
    <defs>
     <path d="M 9.8125 72.90625 
L 23.09375 72.90625 
L 55.421875 11.921875 
L 55.421875 72.90625 
L 64.984375 72.90625 
L 64.984375 0 
L 51.703125 0 
L 19.390625 60.984375 
L 19.390625 0 
L 9.8125 0 
z
" id="DejaVuSans-78"/>
    </defs>
    <g transform="translate(201.323966 142.089702)scale(0.1 -0.1)">
     <use xlink:href="#DejaVuSans-78"/>
     <use x="74.804688" xlink:href="#DejaVuSans-82"/>
     <use x="144.224609" xlink:href="#DejaVuSans-65"/>
     <use x="212.632812" xlink:href="#DejaVuSans-83"/>
    </g>
   </g>
   <g id="text_7">
    <!-- PIK3CA -->
    <defs>
     <path d="M 19.671875 64.796875 
L 19.671875 37.40625 
L 32.078125 37.40625 
Q 38.96875 37.40625 42.71875 40.96875 
Q 46.484375 44.53125 46.484375 51.125 
Q 46.484375 57.671875 42.71875 61.234375 
Q 38.96875 64.796875 32.078125 64.796875 
z
M 9.8125 72.90625 
L 32.078125 72.90625 
Q 44.34375 72.90625 50.609375 67.359375 
Q 56.890625 61.8125 56.890625 51.125 
Q 56.890625 40.328125 50.609375 34.8125 
Q 44.34375 29.296875 32.078125 29.296875 
L 19.671875 29.296875 
L 19.671875 0 
L 9.8125 0 
z
" id="DejaVuSans-80"/>
     <path d="M 9.8125 72.90625 
L 19.671875 72.90625 
L 19.671875 0 
L 9.8125 0 
z
" id="DejaVuSans-73"/>
     <path d="M 9.8125 72.90625 
L 19.671875 72.90625 
L 19.671875 42.09375 
L 52.390625 72.90625 
L 65.09375 72.90625 
L 28.90625 38.921875 
L 67.671875 0 
L 54.6875 0 
L 19.671875 35.109375 
L 19.671875 0 
L 9.8125 0 
z
" id="DejaVuSans-75"/>
     <path d="M 64.40625 67.28125 
L 64.40625 56.890625 
Q 59.421875 61.53125 53.78125 63.8125 
Q 48.140625 66.109375 41.796875 66.109375 
Q 29.296875 66.109375 22.65625 58.46875 
Q 16.015625 50.828125 16.015625 36.375 
Q 16.015625 21.96875 22.65625 14.328125 
Q 29.296875 6.6875 41.796875 6.6875 
Q 48.140625 6.6875 53.78125 8.984375 
Q 59.421875 11.28125 64.40625 15.921875 
L 64.40625 5.609375 
Q 59.234375 2.09375 53.4375 0.328125 
Q 47.65625 -1.421875 41.21875 -1.421875 
Q 24.65625 -1.421875 15.125 8.703125 
Q 5.609375 18.84375 5.609375 36.375 
Q 5.609375 53.953125 15.125 64.078125 
Q 24.65625 74.21875 41.21875 74.21875 
Q 47.75 74.21875 53.53125 72.484375 
Q 59.328125 70.75 64.40625 67.28125 
z
" id="DejaVuSans-67"/>
    </defs>
    <g transform="translate(289.748833 142.089702)scale(0.1 -0.1)">
     <use xlink:href="#DejaVuSans-80"/>
     <use x="60.302734" xlink:href="#DejaVuSans-73"/>
     <use x="89.794922" xlink:href="#DejaVuSans-75"/>
     <use x="155.371094" xlink:href="#DejaVuSans-51"/>
     <use x="218.994141" xlink:href="#DejaVuSans-67"/>
     <use x="288.818359" xlink:href="#DejaVuSans-65"/>
    </g>
   </g>
   <g id="text_8">
    <!-- PTEN -->
    <defs>
     <path d="M -0.296875 72.90625 
L 61.375 72.90625 
L 61.375 64.59375 
L 35.5 64.59375 
L 35.5 0 
L 25.59375 0 
L 25.59375 64.59375 
L -0.296875 64.59375 
z
" id="DejaVuSans-84"/>
    </defs>
    <g transform="translate(377.387365 142.089702)scale(0.1 -0.1)">
     <use xlink:href="#DejaVuSans-80"/>
     <use x="60.302734" xlink:href="#DejaVuSans-84"/>
     <use x="121.386719" xlink:href="#DejaVuSans-69"/>
     <use x="184.570312" xlink:href="#DejaVuSans-78"/>
    </g>
   </g>
   <g id="text_9">
    <!-- NF1 -->
    <defs>
     <path d="M 12.40625 8.296875 
L 28.515625 8.296875 
L 28.515625 63.921875 
L 10.984375 60.40625 
L 10.984375 69.390625 
L 28.421875 72.90625 
L 38.28125 72.90625 
L 38.28125 8.296875 
L 54.390625 8.296875 
L 54.390625 0 
L 12.40625 0 
z
" id="DejaVuSans-49"/>
    </defs>
    <g transform="translate(173.69455 205.830075)scale(0.1 -0.1)">
     <use xlink:href="#DejaVuSans-78"/>
     <use x="74.804688" xlink:href="#DejaVuSans-70"/>
     <use x="132.324219" xlink:href="#DejaVuSans-49"/>
    </g>
   </g>
   <g id="text_10">
    <!-- AKT -->
    <g transform="translate(297.862895 205.830075)scale(0.1 -0.1)">
     <use xlink:href="#DejaVuSans-65"/>
     <use x="68.408203" xlink:href="#DejaVuSans-75"/>
     <use x="133.875" xlink:href="#DejaVuSans-84"/>
    </g>
   </g>
   <g id="text_11">
    <!-- INPP4B -->
    <defs>
     <path d="M 37.796875 64.3125 
L 12.890625 25.390625 
L 37.796875 25.390625 
z
M 35.203125 72.90625 
L 47.609375 72.90625 
L 47.609375 25.390625 
L 58.015625 25.390625 
L 58.015625 17.1875 
L 47.609375 17.1875 
L 47.609375 0 
L 37.796875 0 
L 37.796875 17.1875 
L 4.890625 17.1875 
L 4.890625 26.703125 
z
" id="DejaVuSans-52"/>
    </defs>
    <g transform="translate(372.499084 205.830075)scale(0.1 -0.1)">
     <use xlink:href="#DejaVuSans-73"/>
     <use x="29.492188" xlink:href="#DejaVuSans-78"/>
     <use x="104.296875" xlink:href="#DejaVuSans-80"/>
     <use x="164.599609" xlink:href="#DejaVuSans-80"/>
     <use x="224.902344" xlink:href="#DejaVuSans-52"/>
     <use x="288.525391" xlink:href="#DejaVuSans-66"/>
    </g>
   </g>
   <g id="text_12">
    <!-- STK11 -->
    <g transform="translate(140.852051 269.570448)scale(0.1 -0.1)">
     <use xlink:href="#DejaVuSans-83"/>
     <use x="63.476562" xlink:href="#DejaVuSans-84"/>
     <use x="124.560547" xlink:href="#DejaVuSans-75"/>
     <use x="190.136719" xlink:href="#DejaVuSans-49"/>
     <use x="253.759766" xlink:href="#DejaVuSans-49"/>
    </g>
   </g>
   <g id="text_13">
    <!-- TSC1 -->
    <g transform="translate(231.433751 256.184969)scale(0.1 -0.1)">
     <use xlink:href="#DejaVuSans-84"/>
     <use x="61.083984" xlink:href="#DejaVuSans-83"/>
     <use x="124.560547" xlink:href="#DejaVuSans-67"/>
     <use x="194.384766" xlink:href="#DejaVuSans-49"/>
    </g>
   </g>
   <g id="text_14">
    <!-- TSC2 -->
    <g transform="translate(231.433751 282.955926)scale(0.1 -0.1)">
     <use xlink:href="#DejaVuSans-84"/>
     <use x="61.083984" xlink:href="#DejaVuSans-83"/>
     <use x="124.560547" xlink:href="#DejaVuSans-67"/>
     <use x="194.384766" xlink:href="#DejaVuSans-50"/>
    </g>
   </g>
   <g id="text_15">
    <!-- MTOR -->
    <defs>
     <path d="M 9.8125 72.90625 
L 24.515625 72.90625 
L 43.109375 23.296875 
L 61.8125 72.90625 
L 76.515625 72.90625 
L 76.515625 0 
L 66.890625 0 
L 66.890625 64.015625 
L 48.09375 14.015625 
L 38.1875 14.015625 
L 19.390625 64.015625 
L 19.390625 0 
L 9.8125 0 
z
" id="DejaVuSans-77"/>
     <path d="M 39.40625 66.21875 
Q 28.65625 66.21875 22.328125 58.203125 
Q 16.015625 50.203125 16.015625 36.375 
Q 16.015625 22.609375 22.328125 14.59375 
Q 28.65625 6.59375 39.40625 6.59375 
Q 50.140625 6.59375 56.421875 14.59375 
Q 62.703125 22.609375 62.703125 36.375 
Q 62.703125 50.203125 56.421875 58.203125 
Q 50.140625 66.21875 39.40625 66.21875 
z
M 39.40625 74.21875 
Q 54.734375 74.21875 63.90625 63.9375 
Q 73.09375 53.65625 73.09375 36.375 
Q 73.09375 19.140625 63.90625 8.859375 
Q 54.734375 -1.421875 39.40625 -1.421875 
Q 24.03125 -1.421875 14.8125 8.828125 
Q 5.609375 19.09375 5.609375 36.375 
Q 5.609375 53.65625 14.8125 63.9375 
Q 24.03125 74.21875 39.40625 74.21875 
z
" id="DejaVuSans-79"/>
    </defs>
    <g transform="translate(317.169357 269.570448)scale(0.1 -0.1)">
     <use xlink:href="#DejaVuSans-77"/>
     <use x="86.279297" xlink:href="#DejaVuSans-84"/>
     <use x="147.363281" xlink:href="#DejaVuSans-79"/>
     <use x="226.074219" xlink:href="#DejaVuSans-82"/>
    </g>
   </g>
   <g id="text_16">
    <!-- Proliferation -->
    <defs>
     <path d="M 41.109375 46.296875 
Q 39.59375 47.171875 37.8125 47.578125 
Q 36.03125 48 33.890625 48 
Q 26.265625 48 22.1875 43.046875 
Q 18.109375 38.09375 18.109375 28.8125 
L 18.109375 0 
L 9.078125 0 
L 9.078125 54.6875 
L 18.109375 54.6875 
L 18.109375 46.1875 
Q 20.953125 51.171875 25.484375 53.578125 
Q 30.03125 56 36.53125 56 
Q 37.453125 56 38.578125 55.875 
Q 39.703125 55.765625 41.0625 55.515625 
z
" id="DejaVuSans-114"/>
     <path d="M 30.609375 48.390625 
Q 23.390625 48.390625 19.1875 42.75 
Q 14.984375 37.109375 14.984375 27.296875 
Q 14.984375 17.484375 19.15625 11.84375 
Q 23.34375 6.203125 30.609375 6.203125 
Q 37.796875 6.203125 41.984375 11.859375 
Q 46.1875 17.53125 46.1875 27.296875 
Q 46.1875 37.015625 41.984375 42.703125 
Q 37.796875 48.390625 30.609375 48.390625 
z
M 30.609375 56 
Q 42.328125 56 49.015625 48.375 
Q 55.71875 40.765625 55.71875 27.296875 
Q 55.71875 13.875 49.015625 6.21875 
Q 42.328125 -1.421875 30.609375 -1.421875 
Q 18.84375 -1.421875 12.171875 6.21875 
Q 5.515625 13.875 5.515625 27.296875 
Q 5.515625 40.765625 12.171875 48.375 
Q 18.84375 56 30.609375 56 
z
" id="DejaVuSans-111"/>
     <path d="M 9.421875 75.984375 
L 18.40625 75.984375 
L 18.40625 0 
L 9.421875 0 
z
" id="DejaVuSans-108"/>
     <path d="M 9.421875 54.6875 
L 18.40625 54.6875 
L 18.40625 0 
L 9.421875 0 
z
M 9.421875 75.984375 
L 18.40625 75.984375 
L 18.40625 64.59375 
L 9.421875 64.59375 
z
" id="DejaVuSans-105"/>
     <path d="M 37.109375 75.984375 
L 37.109375 68.5 
L 28.515625 68.5 
Q 23.6875 68.5 21.796875 66.546875 
Q 19.921875 64.59375 19.921875 59.515625 
L 19.921875 54.6875 
L 34.71875 54.6875 
L 34.71875 47.703125 
L 19.921875 47.703125 
L 19.921875 0 
L 10.890625 0 
L 10.890625 47.703125 
L 2.296875 47.703125 
L 2.296875 54.6875 
L 10.890625 54.6875 
L 10.890625 58.5 
Q 10.890625 67.625 15.140625 71.796875 
Q 19.390625 75.984375 28.609375 75.984375 
z
" id="DejaVuSans-102"/>
     <path d="M 56.203125 29.59375 
L 56.203125 25.203125 
L 14.890625 25.203125 
Q 15.484375 15.921875 20.484375 11.0625 
Q 25.484375 6.203125 34.421875 6.203125 
Q 39.59375 6.203125 44.453125 7.46875 
Q 49.3125 8.734375 54.109375 11.28125 
L 54.109375 2.78125 
Q 49.265625 0.734375 44.1875 -0.34375 
Q 39.109375 -1.421875 33.890625 -1.421875 
Q 20.796875 -1.421875 13.15625 6.1875 
Q 5.515625 13.8125 5.515625 26.8125 
Q 5.515625 40.234375 12.765625 48.109375 
Q 20.015625 56 32.328125 56 
Q 43.359375 56 49.78125 48.890625 
Q 56.203125 41.796875 56.203125 29.59375 
z
M 47.21875 32.234375 
Q 47.125 39.59375 43.09375 43.984375 
Q 39.0625 48.390625 32.421875 48.390625 
Q 24.90625 48.390625 20.390625 44.140625 
Q 15.875 39.890625 15.1875 32.171875 
z
" id="DejaVuSans-101"/>
     <path d="M 34.28125 27.484375 
Q 23.390625 27.484375 19.1875 25 
Q 14.984375 22.515625 14.984375 16.5 
Q 14.984375 11.71875 18.140625 8.90625 
Q 21.296875 6.109375 26.703125 6.109375 
Q 34.1875 6.109375 38.703125 11.40625 
Q 43.21875 16.703125 43.21875 25.484375 
L 43.21875 27.484375 
z
M 52.203125 31.203125 
L 52.203125 0 
L 43.21875 0 
L 43.21875 8.296875 
Q 40.140625 3.328125 35.546875 0.953125 
Q 30.953125 -1.421875 24.3125 -1.421875 
Q 15.921875 -1.421875 10.953125 3.296875 
Q 6 8.015625 6 15.921875 
Q 6 25.140625 12.171875 29.828125 
Q 18.359375 34.515625 30.609375 34.515625 
L 43.21875 34.515625 
L 43.21875 35.40625 
Q 43.21875 41.609375 39.140625 45 
Q 35.0625 48.390625 27.6875 48.390625 
Q 23 48.390625 18.546875 47.265625 
Q 14.109375 46.140625 10.015625 43.890625 
L 10.015625 52.203125 
Q 14.9375 54.109375 19.578125 55.046875 
Q 24.21875 56 28.609375 56 
Q 40.484375 56 46.34375 49.84375 
Q 52.203125 43.703125 52.203125 31.203125 
z
" id="DejaVuSans-97"/>
     <path d="M 18.3125 70.21875 
L 18.3125 54.6875 
L 36.8125 54.6875 
L 36.8125 47.703125 
L 18.3125 47.703125 
L 18.3125 18.015625 
Q 18.3125 11.328125 20.140625 9.421875 
Q 21.96875 7.515625 27.59375 7.515625 
L 36.8125 7.515625 
L 36.8125 0 
L 27.59375 0 
Q 17.1875 0 13.234375 3.875 
Q 9.28125 7.765625 9.28125 18.015625 
L 9.28125 47.703125 
L 2.6875 47.703125 
L 2.6875 54.6875 
L 9.28125 54.6875 
L 9.28125 70.21875 
z
" id="DejaVuSans-116"/>
     <path d="M 54.890625 33.015625 
L 54.890625 0 
L 45.90625 0 
L 45.90625 32.71875 
Q 45.90625 40.484375 42.875 44.328125 
Q 39.84375 48.1875 33.796875 48.1875 
Q 26.515625 48.1875 22.3125 43.546875 
Q 18.109375 38.921875 18.109375 30.90625 
L 18.109375 0 
L 9.078125 0 
L 9.078125 54.6875 
L 18.109375 54.6875 
L 18.109375 46.1875 
Q 21.34375 51.125 25.703125 53.5625 
Q 30.078125 56 35.796875 56 
Q 45.21875 56 50.046875 50.171875 
Q 54.890625 44.34375 54.890625 33.015625 
z
" id="DejaVuSans-110"/>
    </defs>
    <g transform="translate(267.436717 320.562746)scale(0.1 -0.1)">
     <use xlink:href="#DejaVuSans-80"/>
     <use x="60.287109" xlink:href="#DejaVuSans-114"/>
     <use x="101.369141" xlink:href="#DejaVuSans-111"/>
     <use x="162.550781" xlink:href="#DejaVuSans-108"/>
     <use x="190.333984" xlink:href="#DejaVuSans-105"/>
     <use x="218.117188" xlink:href="#DejaVuSans-102"/>
     <use x="253.322266" xlink:href="#DejaVuSans-101"/>
     <use x="314.845703" xlink:href="#DejaVuSans-114"/>
     <use x="355.958984" xlink:href="#DejaVuSans-97"/>
     <use x="417.238281" xlink:href="#DejaVuSans-116"/>
     <use x="456.447266" xlink:href="#DejaVuSans-105"/>
     <use x="484.230469" xlink:href="#DejaVuSans-111"/>
     <use x="545.412109" xlink:href="#DejaVuSans-110"/>
    </g>
   </g>
   <g id="text_17">
    <!-- Survival -->
    <defs>
     <path d="M 8.5 21.578125 
L 8.5 54.6875 
L 17.484375 54.6875 
L 17.484375 21.921875 
Q 17.484375 14.15625 20.5 10.265625 
Q 23.53125 6.390625 29.59375 6.390625 
Q 36.859375 6.390625 41.078125 11.03125 
Q 45.3125 15.671875 45.3125 23.6875 
L 45.3125 54.6875 
L 54.296875 54.6875 
L 54.296875 0 
L 45.3125 0 
L 45.3125 8.40625 
Q 42.046875 3.421875 37.71875 1 
Q 33.40625 -1.421875 27.6875 -1.421875 
Q 18.265625 -1.421875 13.375 4.4375 
Q 8.5 10.296875 8.5 21.578125 
z
M 31.109375 56 
z
" id="DejaVuSans-117"/>
     <path d="M 2.984375 54.6875 
L 12.5 54.6875 
L 29.59375 8.796875 
L 46.6875 54.6875 
L 56.203125 54.6875 
L 35.6875 0 
L 23.484375 0 
z
" id="DejaVuSans-118"/>
    </defs>
    <g transform="translate(355.594582 320.562746)scale(0.1 -0.1)">
     <use xlink:href="#DejaVuSans-83"/>
     <use x="63.476562" xlink:href="#DejaVuSans-117"/>
     <use x="126.855469" xlink:href="#DejaVuSans-114"/>
     <use x="167.96875" xlink:href="#DejaVuSans-118"/>
     <use x="227.148438" xlink:href="#DejaVuSans-105"/>
     <use x="254.931641" xlink:href="#DejaVuSans-118"/>
     <use x="314.111328" xlink:href="#DejaVuSans-97"/>
     <use x="375.390625" xlink:href="#DejaVuSans-108"/>
    </g>
   </g>
   <g id="text_18">
    <!-- BLCA 2014 RTK RAS PI(3)K pathway -->
    <defs>
     <path d="M 9.8125 72.90625 
L 19.671875 72.90625 
L 19.671875 8.296875 
L 55.171875 8.296875 
L 55.171875 0 
L 9.8125 0 
z
" id="DejaVuSans-76"/>
     <path id="DejaVuSans-32"/>
     <path d="M 31.78125 66.40625 
Q 24.171875 66.40625 20.328125 58.90625 
Q 16.5 51.421875 16.5 36.375 
Q 16.5 21.390625 20.328125 13.890625 
Q 24.171875 6.390625 31.78125 6.390625 
Q 39.453125 6.390625 43.28125 13.890625 
Q 47.125 21.390625 47.125 36.375 
Q 47.125 51.421875 43.28125 58.90625 
Q 39.453125 66.40625 31.78125 66.40625 
z
M 31.78125 74.21875 
Q 44.046875 74.21875 50.515625 64.515625 
Q 56.984375 54.828125 56.984375 36.375 
Q 56.984375 17.96875 50.515625 8.265625 
Q 44.046875 -1.421875 31.78125 -1.421875 
Q 19.53125 -1.421875 13.0625 8.265625 
Q 6.59375 17.96875 6.59375 36.375 
Q 6.59375 54.828125 13.0625 64.515625 
Q 19.53125 74.21875 31.78125 74.21875 
z
" id="DejaVuSans-48"/>
     <path d="M 31 75.875 
Q 24.46875 64.65625 21.28125 53.65625 
Q 18.109375 42.671875 18.109375 31.390625 
Q 18.109375 20.125 21.3125 9.0625 
Q 24.515625 -2 31 -13.1875 
L 23.1875 -13.1875 
Q 15.875 -1.703125 12.234375 9.375 
Q 8.59375 20.453125 8.59375 31.390625 
Q 8.59375 42.28125 12.203125 53.3125 
Q 15.828125 64.359375 23.1875 75.875 
z
" id="DejaVuSans-40"/>
     <path d="M 8.015625 75.875 
L 15.828125 75.875 
Q 23.140625 64.359375 26.78125 53.3125 
Q 30.421875 42.28125 30.421875 31.390625 
Q 30.421875 20.453125 26.78125 9.375 
Q 23.140625 -1.703125 15.828125 -13.1875 
L 8.015625 -13.1875 
Q 14.5 -2 17.703125 9.0625 
Q 20.90625 20.125 20.90625 31.390625 
Q 20.90625 42.671875 17.703125 53.65625 
Q 14.5 64.65625 8.015625 75.875 
z
" id="DejaVuSans-41"/>
     <path d="M 18.109375 8.203125 
L 18.109375 -20.796875 
L 9.078125 -20.796875 
L 9.078125 54.6875 
L 18.109375 54.6875 
L 18.109375 46.390625 
Q 20.953125 51.265625 25.265625 53.625 
Q 29.59375 56 35.59375 56 
Q 45.5625 56 51.78125 48.09375 
Q 58.015625 40.1875 58.015625 27.296875 
Q 58.015625 14.40625 51.78125 6.484375 
Q 45.5625 -1.421875 35.59375 -1.421875 
Q 29.59375 -1.421875 25.265625 0.953125 
Q 20.953125 3.328125 18.109375 8.203125 
z
M 48.6875 27.296875 
Q 48.6875 37.203125 44.609375 42.84375 
Q 40.53125 48.484375 33.40625 48.484375 
Q 26.265625 48.484375 22.1875 42.84375 
Q 18.109375 37.203125 18.109375 27.296875 
Q 18.109375 17.390625 22.1875 11.75 
Q 26.265625 6.109375 33.40625 6.109375 
Q 40.53125 6.109375 44.609375 11.75 
Q 48.6875 17.390625 48.6875 27.296875 
z
" id="DejaVuSans-112"/>
     <path d="M 54.890625 33.015625 
L 54.890625 0 
L 45.90625 0 
L 45.90625 32.71875 
Q 45.90625 40.484375 42.875 44.328125 
Q 39.84375 48.1875 33.796875 48.1875 
Q 26.515625 48.1875 22.3125 43.546875 
Q 18.109375 38.921875 18.109375 30.90625 
L 18.109375 0 
L 9.078125 0 
L 9.078125 75.984375 
L 18.109375 75.984375 
L 18.109375 46.1875 
Q 21.34375 51.125 25.703125 53.5625 
Q 30.078125 56 35.796875 56 
Q 45.21875 56 50.046875 50.171875 
Q 54.890625 44.34375 54.890625 33.015625 
z
" id="DejaVuSans-104"/>
     <path d="M 4.203125 54.6875 
L 13.1875 54.6875 
L 24.421875 12.015625 
L 35.59375 54.6875 
L 46.1875 54.6875 
L 57.421875 12.015625 
L 68.609375 54.6875 
L 77.59375 54.6875 
L 63.28125 0 
L 52.6875 0 
L 40.921875 44.828125 
L 29.109375 0 
L 18.5 0 
z
" id="DejaVuSans-119"/>
     <path d="M 32.171875 -5.078125 
Q 28.375 -14.84375 24.75 -17.8125 
Q 21.140625 -20.796875 15.09375 -20.796875 
L 7.90625 -20.796875 
L 7.90625 -13.28125 
L 13.1875 -13.28125 
Q 16.890625 -13.28125 18.9375 -11.515625 
Q 21 -9.765625 23.484375 -3.21875 
L 25.09375 0.875 
L 2.984375 54.6875 
L 12.5 54.6875 
L 29.59375 11.921875 
L 46.6875 54.6875 
L 56.203125 54.6875 
z
" id="DejaVuSans-121"/>
    </defs>
    <g transform="translate(99.604448 18.597656)scale(0.15 -0.15)">
     <use xlink:href="#DejaVuSans-66"/>
     <use x="68.603516" xlink:href="#DejaVuSans-76"/>
     <use x="124.316406" xlink:href="#DejaVuSans-67"/>
     <use x="194.140625" xlink:href="#DejaVuSans-65"/>
     <use x="262.548828" xlink:href="#DejaVuSans-32"/>
     <use x="294.335938" xlink:href="#DejaVuSans-50"/>
     <use x="357.958984" xlink:href="#DejaVuSans-48"/>
     <use x="421.582031" xlink:href="#DejaVuSans-49"/>
     <use x="485.205078" xlink:href="#DejaVuSans-52"/>
     <use x="548.828125" xlink:href="#DejaVuSans-32"/>
     <use x="580.615234" xlink:href="#DejaVuSans-82"/>
     <use x="649.988281" xlink:href="#DejaVuSans-84"/>
     <use x="711.072266" xlink:href="#DejaVuSans-75"/>
     <use x="776.648438" xlink:href="#DejaVuSans-32"/>
     <use x="808.435547" xlink:href="#DejaVuSans-82"/>
     <use x="877.855469" xlink:href="#DejaVuSans-65"/>
     <use x="946.263672" xlink:href="#DejaVuSans-83"/>
     <use x="1009.740234" xlink:href="#DejaVuSans-32"/>
     <use x="1041.527344" xlink:href="#DejaVuSans-80"/>
     <use x="1101.830078" xlink:href="#DejaVuSans-73"/>
     <use x="1131.322266" xlink:href="#DejaVuSans-40"/>
     <use x="1170.335938" xlink:href="#DejaVuSans-51"/>
     <use x="1233.958984" xlink:href="#DejaVuSans-41"/>
     <use x="1272.972656" xlink:href="#DejaVuSans-75"/>
     <use x="1338.548828" xlink:href="#DejaVuSans-32"/>
     <use x="1370.335938" xlink:href="#DejaVuSans-112"/>
     <use x="1433.8125" xlink:href="#DejaVuSans-97"/>
     <use x="1495.091797" xlink:href="#DejaVuSans-116"/>
     <use x="1534.300781" xlink:href="#DejaVuSans-104"/>
     <use x="1597.679688" xlink:href="#DejaVuSans-119"/>
     <use x="1679.466797" xlink:href="#DejaVuSans-97"/>
     <use x="1740.746094" xlink:href="#DejaVuSans-121"/>
    </g>
   </g>
  </g>
 </g>
 <defs>
  <clipPath id="p46feee265e">
   <rect height="318.701864" width="447.79952" x="10.7" y="24.597656"/>
  </clipPath>
 </defs>
</svg>
